<?xml version="1.0" encoding="UTF-8" standalone="no"?> <svg id="Flat" height="512" viewBox="0 0 512 512" width="512" xmlns="http://www.w3.org/2000/svg"><g><g><rect fill="#fffbf1" height="464" rx="20" width="224" x="240" y="24"/><path d="m240 448h224a0 0 0 0 1 0 0v20a20 20 0 0 1 -20 20h-184a20 20 0 0 1 -20-20v-20a0 0 0 0 1 0 0z" fill="#fac850"/><path d="m260 24h184a20 20 0 0 1 20 20v28a0 0 0 0 1 0 0h-224a0 0 0 0 1 0 0v-28a20 20 0 0 1 20-20z" fill="#fac850"/><rect fill="#dcf9fe" height="392" rx="10" width="304" x="48" y="56"/><path d="m176 408h-40a40 40 0 0 1 -40-40v-8h80z" fill="#ffd4cf"/><path d="m408 288h-64l-56 24-48 64-64-16v48l80 16 32-24v48h176v-136z" fill="#79d8eb"/><path d="m408 448h-64v-160l32 24 32-24z" fill="#f8feff"/><g><path d="m408 376h32v16h-32z" fill="#afe8f3"/><g><g><path d="m392 248h-32l-16 40 32 24 32-24z" fill="#ffd4cf"/><path d="m406.29 245.8261-20 12a20 20 0 0 1 -20.58 0l-20-12a20 20 0 0 1 -9.71-17.15v-68.6761h80v68.6762a20 20 0 0 1 -9.71 17.1499z" fill="#ffd4cf"/><path d="m376 128h18a30 30 0 0 1 30 30v8a10 10 0 0 1 -10 10h-38a0 0 0 0 1 0 0v-48a0 0 0 0 1 0 0z" fill="#d63924"/></g><path d="m312 112h42a30 30 0 0 1 30 30v34a0 0 0 0 1 0 0h-42a30 30 0 0 1 -30-30v-34a0 0 0 0 1 0 0z" fill="#fa5d3f" transform="matrix(-1 0 0 -1 696 288)"/></g></g><g fill="#dcf9fe"><path d="m344 288-32 56 32 16z"/><path d="m408 288 32 56-32 16z"/></g></g><g fill="#79d8eb"><path d="m272 144h-48v-48h-48v48h-48v48h48v48h48v-48h48z"/><path d="m80 272h112v16h-112z"/><path d="m208 272h64v16h-64z"/><path d="m160 312h104v16h-104z"/><path d="m80 312h64v16h-64z"/></g></g></svg>