<?xml version="1.0" encoding="iso-8859-1"?>
<!-- Generator: Adobe Illustrator 23.1.1, SVG Export Plug-In . SVG Version: 6.00 Build 0)  -->
<svg version="1.1" id="_x31_-outline-expand" xmlns="http://www.w3.org/2000/svg" xmlns:xlink="http://www.w3.org/1999/xlink"
	 x="0px" y="0px" viewBox="0 0 64 64" style="enable-background:new 0 0 64 64;" xml:space="preserve">
<rect x="17" y="2" style="fill:#F2DAAE;" width="30" height="60"/>
<rect x="47" y="21" style="fill:#E0C494;" width="15" height="41"/>
<rect x="51" y="25" style="fill:#EF941D;" width="6" height="6"/>
<rect x="51" y="35" style="fill:#EF941D;" width="6" height="6"/>
<rect x="51" y="45" style="fill:#EF941D;" width="6" height="6"/>
<rect x="2" y="21" style="fill:#E0C494;" width="15" height="41"/>
<rect x="7" y="25" style="fill:#EF941D;" width="6" height="6"/>
<rect x="21" y="23" style="fill:#EFBC2E;" width="4" height="4"/>
<rect x="30" y="23" style="fill:#EFBC2E;" width="4" height="4"/>
<rect x="39" y="23" style="fill:#EFBC2E;" width="4" height="4"/>
<rect x="21" y="31" style="fill:#EFBC2E;" width="4" height="4"/>
<rect x="30" y="31" style="fill:#EFBC2E;" width="4" height="4"/>
<rect x="39" y="31" style="fill:#EFBC2E;" width="4" height="4"/>
<rect x="21" y="39" style="fill:#EFBC2E;" width="4" height="4"/>
<rect x="30" y="39" style="fill:#EFBC2E;" width="4" height="4"/>
<rect x="39" y="39" style="fill:#EFBC2E;" width="4" height="4"/>
<rect x="7" y="35" style="fill:#EF941D;" width="6" height="6"/>
<rect x="7" y="45" style="fill:#EF941D;" width="6" height="6"/>
<polygon style="fill:#42A5B2;" points="38,11 34,11 34,7 30,7 30,11 26,11 26,15 30,15 30,19 34,19 34,15 38,15 "/>
<rect x="28" y="49" style="fill:#3A4249;" width="8" height="13"/>
<rect x="25" y="48" style="fill:#3A4249;" width="14" height="2"/>
<rect x="42" y="56" style="fill:#3A4249;" width="2" height="2"/>
<rect x="42" y="52" style="fill:#3A4249;" width="2" height="2"/>
<rect x="42" y="48" style="fill:#3A4249;" width="2" height="2"/>
</svg>
