<?xml version="1.0" encoding="iso-8859-1"?>
<!-- Generator: Adobe Illustrator 19.0.0, SVG Export Plug-In . SVG Version: 6.00 Build 0)  -->
<svg version="1.1" id="Capa_1" xmlns="http://www.w3.org/2000/svg" xmlns:xlink="http://www.w3.org/1999/xlink" x="0px" y="0px"
	 viewBox="0 0 512 512" style="enable-background:new 0 0 512 512;" xml:space="preserve">
<rect x="166" y="75" style="fill:#3C3A41;" width="30" height="60"/>
<rect x="406" y="75" style="fill:#2B292C;" width="30" height="60"/>
<path style="fill:#57555C;" d="M496,75c0,8.399-6.599,15-15,15H61c-8.401,0-15-6.601-15-15c0-8.401,6.599-15,15-15h420
	C489.401,60,496,66.599,496,75z"/>
<path style="fill:#3C3A41;" d="M496,75c0,8.399-6.599,15-15,15H301V60h180C489.401,60,496,66.599,496,75z"/>
<path style="fill:#FD3C65;" d="M451,120H151c-8.401,0-15,6.599-15,15v240c0,8.399,6.599,15,15,15h300c8.401,0,15-6.601,15-15V135
	C466,126.599,459.401,120,451,120z"/>
<path style="fill:#FD003A;" d="M466,135v240c0,8.399-6.599,15-15,15H301V120h150C459.401,120,466,126.599,466,135z"/>
<path style="fill:#E5E5E5;" d="M361,225h-30v-30c0-8.401-6.599-15-15-15h-30c-8.401,0-15,6.599-15,15v30h-30
	c-8.401,0-15,6.599-15,15v30c0,8.399,6.599,15,15,15h30v30c0,8.399,6.599,15,15,15h30c8.401,0,15-6.601,15-15v-30h30
	c8.401,0,15-6.601,15-15v-30C376,231.599,369.401,225,361,225z"/>
<path style="fill:#C8C6CD;" d="M376,240v30c0,8.399-6.599,15-15,15h-30v30c0,8.399-6.599,15-15,15h-15V180h15
	c8.401,0,15,6.599,15,15v30h30C369.401,225,376,231.599,376,240z"/>
<path style="fill:#A24F3D;" d="M76,30v467c0,8.399-6.599,15-15,15H31c-8.401,0-15-6.601-15-15V30C16,13.5,29.5,0,46,0S76,13.5,76,30
	z"/>
<path style="fill:#8B432D;" d="M76,30v467c0,8.399-6.599,15-15,15H46V0C62.5,0,76,13.5,76,30z"/>
<g>
</g>
<g>
</g>
<g>
</g>
<g>
</g>
<g>
</g>
<g>
</g>
<g>
</g>
<g>
</g>
<g>
</g>
<g>
</g>
<g>
</g>
<g>
</g>
<g>
</g>
<g>
</g>
<g>
</g>
</svg>
