<svg height="512pt" viewBox="0 -41 512.00007 512" width="512pt" xmlns="http://www.w3.org/2000/svg"><path d="m425.378906 195.714844c-39.925781 0-77.550781-9.835938-110.605468-27.199219h-169.597657v78.121094c0 101.296875 82.117188 183.414062 183.414063 183.414062 101.292968 0 183.410156-82.117187 183.410156-183.414062v-42.390625c0-11.828125-11.273438-20.390625-22.671875-17.21875-20.351563 5.660156-41.796875 8.6875-63.949219 8.6875zm0 0" fill="#fad200"/><path d="m489.328125 187.027344c-15.246094 4.238281-31.105469 7.003906-47.421875 8.121094v51.488281c0 89.308593-63.835938 163.695312-148.363281 180.054687 11.34375 2.195313 23.058593 3.359375 35.042969 3.359375 101.296874 0 183.414062-82.117187 183.414062-183.414062v-42.390625c0-11.828125-11.273438-20.390625-22.671875-17.21875zm0 0" fill="#fab700"/><path d="m340.109375 131.054688c0 72.378906-58.675781 131.054687-131.054687 131.054687-72.378907 0-131.050782-58.675781-131.050782-131.054687 0-72.378907 58.671875-131.054688 131.050782-131.054688 72.378906 0 131.054687 58.675781 131.054687 131.054688zm0 0" fill="#fad200"/><path d="m237.5625 3.117188c23.878906 23.738281 38.667969 56.613281 38.667969 92.945312 0 72.378906-58.675781 131.054688-131.054688 131.054688-9.792969 0-19.328125-1.082032-28.507812-3.121094 23.695312 23.554687 56.339843 38.113281 92.390625 38.113281 72.378906 0 131.050781-58.675781 131.050781-131.054687 0-62.589844-43.875-114.921876-102.546875-127.9375zm0 0" fill="#fab700"/><path d="m94.578125 108.726562-.058594-.007812c-3.738281-.484375-7.527343.164062-10.898437 1.847656-1.476563.738282-2.890625 1.425782-3.632813 1.738282-20.652343 8.742187-43.21875 8.523437-62.964843.78125-9.503907-3.726563-19.261719 5.019531-16.570313 14.863281 1.628906 5.953125 3.945313 11.816406 6.988281 17.488281 20.101563 37.460938 64.6875 53.367188 103.371094 38.546875 5.894531-2.257813 10.890625-6.382813 14.179688-11.769531 15.847656-25.933594-.273438-59.585938-30.414063-63.488282zm0 0" fill="#ff592a"/><path d="m104.632812 111.304688c1.054688 8.851562-.683593 18.199218-5.886718 26.710937-3.292969 5.386719-8.289063 9.511719-14.183594 11.769531-27.550781 10.554688-58.089844 5.515625-80.648438-11.789062 1.046876 2.507812 2.214844 4.992187 3.527344 7.441406 20.101563 37.460938 64.6875 53.367188 103.371094 38.546875 5.894531-2.257813 10.890625-6.382813 14.179688-11.769531 13.976562-22.871094 3.078124-51.734375-20.359376-60.910156zm0 0" fill="#db332f"/><path d="m419.957031 270.449219c5.449219 22.835937-46.546875 54.808593-69.378906 60.257812-22.835937 5.449219-45.761719-8.644531-51.210937-31.480469-5.449219-22.835937 8.644531-45.761718 31.476562-51.210937 22.835938-5.449219 83.664062-.398437 89.113281 22.433594zm0 0" fill="#fab700"/><path d="m419.957031 270.449219c5.449219 22.835937-46.546875 54.808593-69.378906 60.257812-22.835937 5.449219-45.761719-8.644531-51.210937-31.480469-5.449219-22.835937 8.644531-45.761718 31.476562-51.210937 22.835938-5.449219 83.664062-.398437 89.113281 22.433594zm0 0" fill="#fab700"/><path d="m419.957031 270.449219c-2.355469-9.875-15.074219-16.421875-30.59375-20.234375-4.09375 21.96875-48.769531 48.71875-69.472656 53.65625-6.484375 1.546875-12.96875 1.515625-19.066406.160156 7.316406 19.960938 28.570312 31.730469 49.753906 26.675781 22.832031-5.449219 74.828125-37.421875 69.378906-60.257812zm0 0" fill="#ff9b00"/><path d="m214.339844 125.519531c0 12.570313-10.191406 22.761719-22.761719 22.761719s-22.761719-10.191406-22.761719-22.761719c0-12.570312 10.191406-22.761719 22.761719-22.761719s22.761719 10.191407 22.761719 22.761719zm0 0" fill="#0056b0"/></svg>